<svg width="600" height="659" viewBox="0 0 600 659" fill="none" xmlns="http://www.w3.org/2000/svg">
    <path opacity="0.1" d="M600 493.044L492.857 600.228L300 407.298L107.143 600.228L0 493.044L192.857 300.114L0 107.184L107.143 0L300 192.93L492.857 0L600 107.184L407.143 300.114L600 493.044Z" fill="#E5E5E5"/>
    <path opacity="0.2" d="M598.586 551.044L492.857 656.814L300.707 464.591L300 463.883L299.293 464.591L107.143 656.814L1.41394 551.044L193.564 358.821L194.271 358.114L193.564 357.407L1.41394 165.184L107.143 59.4145L299.293 251.637L300 252.345L300.707 251.637L492.857 59.4145L598.586 165.184L406.436 357.407L405.729 358.114L406.436 358.821L598.586 551.044Z" stroke="#E5E5E5" stroke-width="2"/>
</svg>
