<svg width="96" height="96" viewBox="0 0 96 96" fill="none" xmlns="http://www.w3.org/2000/svg">
    <path d="M48.0179 1H48.0183C54.1895 1 60.3003 2.2158 66.0015 4.57797C71.7028 6.94014 76.8828 10.4024 81.2457 14.767C85.6086 19.1315 89.0689 24.3129 91.4289 30.015C93.7889 35.7172 95.0023 41.8284 95 47.9996V48C95 57.2965 92.2431 66.3842 87.0779 74.1137C81.9127 81.8432 74.5712 87.8672 65.982 91.424C57.3928 94.9808 47.9418 95.9105 38.8242 94.0956C29.7066 92.2806 21.332 87.8025 14.7597 81.2277C8.18733 74.6528 3.71241 66.2765 1.90093 57.1582C0.0894477 48.04 1.02276 38.5893 4.58283 30.0015C8.14289 21.4137 14.1698 14.0745 21.9012 8.91225C29.6327 3.74997 38.7214 0.996461 48.0179 1ZM75.7986 65.1156L76.5057 64.4085L75.7986 63.7014L60.0423 47.9451L75.7986 32.1888L76.5057 31.4817L75.7986 30.7746L66.6522 21.6282L65.9451 20.9211L65.238 21.6282L49.4817 37.3845L33.7254 21.6282L33.0183 20.9211L32.3112 21.6282L23.1649 30.7746L22.4578 31.4817L23.1649 32.1888L38.9212 47.9451L23.1649 63.7014L22.4578 64.4085L23.1649 65.1156L32.3112 74.262L33.0183 74.9691L33.7254 74.262L49.4817 58.5057L65.238 74.262L65.9451 74.9691L66.6522 74.262L75.7986 65.1156Z" stroke="#343635" stroke-width="2"/>
</svg>
