<svg width="230" height="43" viewBox="0 0 230 43" fill="none" xmlns="http://www.w3.org/2000/svg">
    <g clip-path="url(#clip0)">
        <path d="M107.676 1.87785H111.497C112.815 1.77851 114.13 2.11709 115.236 2.84105C115.71 3.21599 116.086 3.69914 116.334 4.24987C116.582 4.80061 116.694 5.40283 116.661 6.00587C116.689 6.61962 116.541 7.22864 116.236 7.76182C115.931 8.29499 115.48 8.7303 114.937 9.01689C115.687 9.12323 116.385 9.45976 116.936 9.98007C117.31 10.3538 117.601 10.8021 117.791 11.2957C117.981 11.7894 118.064 12.3173 118.037 12.8454C118.06 13.4268 117.955 14.0062 117.728 14.5421C117.501 15.078 117.159 15.5572 116.726 15.9455C115.631 16.8242 114.25 17.2655 112.848 17.1839H107.709L107.676 1.87785ZM110.655 4.30609V8.23176H111.934C112.13 8.21101 112.323 8.16755 112.508 8.10225C112.738 8.03787 112.954 7.93377 113.148 7.79467C113.348 7.63387 113.509 7.42889 113.617 7.19571C113.763 6.90156 113.835 6.57669 113.828 6.24868C113.849 5.97008 113.8 5.69065 113.687 5.43512C113.575 5.17959 113.4 4.95582 113.18 4.78365C112.703 4.46269 112.137 4.29858 111.561 4.31417L110.655 4.30609ZM110.655 10.5305V14.7556H111.942C112.649 14.7952 113.354 14.653 113.99 14.3428C114.295 14.1635 114.545 13.9027 114.711 13.5897C114.876 13.2767 114.952 12.9237 114.929 12.5702C114.95 12.1983 114.852 11.8293 114.65 11.5165C114.448 11.2037 114.151 10.9633 113.804 10.83C113.151 10.5921 112.457 10.4902 111.764 10.5305H110.655Z" fill="#343635"/>
        <path d="M126.876 3.77999C128.495 2.33114 130.591 1.53009 132.764 1.53009C134.937 1.53009 137.034 2.33114 138.653 3.77999C140.119 5.33723 140.936 7.39571 140.936 9.53492C140.936 11.6741 140.119 13.7326 138.653 15.2899C137.031 16.7338 134.936 17.5315 132.764 17.5315C130.593 17.5315 128.497 16.7338 126.876 15.2899C125.409 13.7326 124.592 11.6741 124.592 9.53492C124.592 7.39571 125.409 5.33723 126.876 3.77999ZM129.094 13.3392C130.079 14.2902 131.395 14.8217 132.764 14.8217C134.134 14.8217 135.45 14.2902 136.435 13.3392C137.356 12.2859 137.864 10.9341 137.864 9.53492C137.864 8.1357 137.356 6.78398 136.435 5.73066C135.455 4.77497 134.141 4.24005 132.772 4.24005C131.404 4.24005 130.089 4.77497 129.11 5.73066C128.631 6.23979 128.257 6.8389 128.011 7.4933C127.766 8.1477 127.652 8.8444 127.677 9.54302C127.652 10.2399 127.766 10.9349 128.013 11.5869C128.261 12.2389 128.636 12.8347 129.118 13.3392H129.094Z" fill="#343635"/>
        <path d="M148.309 1.87787H152.777C154.173 1.78653 155.555 2.19386 156.678 3.02722C157.177 3.44657 157.573 3.97478 157.835 4.57118C158.098 5.16758 158.22 5.81625 158.192 6.46724C158.234 7.17144 158.09 7.8743 157.777 8.50611C157.463 9.13792 156.989 9.67674 156.403 10.0691C155.899 10.4107 155.328 10.6398 154.728 10.7409L159.503 17.2163H155.788L151.701 11.0647H151.336V17.2163H148.35L148.309 1.87787ZM151.296 4.30611V8.90358H152.105C152.349 8.90549 152.593 8.88653 152.834 8.84692C153.151 8.78988 153.462 8.70593 153.765 8.596C154.145 8.46709 154.472 8.21681 154.695 7.88371C154.941 7.49764 155.062 7.04575 155.043 6.58867C155.061 6.13281 154.943 5.68199 154.703 5.2936C154.489 4.95817 154.166 4.70664 153.789 4.58131C153.489 4.47457 153.18 4.39332 152.866 4.33847C152.63 4.30564 152.392 4.28941 152.154 4.28991L151.296 4.30611Z" fill="#343635"/>
        <path d="M166.076 1.87784H170.074C171.137 1.86085 172.199 1.96403 173.239 2.18542C174.156 2.39396 175.017 2.79695 175.764 3.36716C176.692 4.066 177.437 4.97988 177.934 6.03014C178.45 7.12863 178.713 8.3292 178.703 9.543C178.757 10.749 178.504 11.9491 177.965 13.0297C177.427 14.1104 176.622 15.0359 175.627 15.7188C174.868 16.2688 174.011 16.6673 173.101 16.8925C172.09 17.1018 171.058 17.1995 170.026 17.1839H166.076V1.87784ZM169.062 4.44367V14.618H169.977C171.302 14.6832 172.613 14.3292 173.725 13.6063C174.333 13.1592 174.815 12.5625 175.125 11.8741C175.459 11.1425 175.63 10.3472 175.627 9.543C175.631 8.74738 175.463 7.9603 175.133 7.23616C174.824 6.53634 174.345 5.92439 173.741 5.45544C172.628 4.72078 171.308 4.36584 169.977 4.44367H169.062Z" fill="#343635"/>
        <path d="M194.543 1.87784V4.44367H189.031V7.8675H194.316V10.4414H189.031V14.618H194.543V17.1839H186.052V1.87784H194.543Z" fill="#343635"/>
        <path d="M202.03 1.87787H206.457C207.853 1.78653 209.236 2.19386 210.359 3.02722C210.857 3.44821 211.252 3.97809 211.513 4.57595C211.774 5.17381 211.894 5.82367 211.864 6.47534C211.906 7.17954 211.763 7.88241 211.449 8.51422C211.135 9.14602 210.662 9.68484 210.076 10.0772C209.572 10.4188 209 10.6479 208.4 10.749L213.176 17.2244H209.436L205.349 11.0728H204.976V17.2244H201.998L202.03 1.87787ZM205.009 4.30611V8.90358H205.858C206.102 8.90518 206.346 8.88622 206.587 8.84692C206.904 8.78988 207.215 8.70594 207.518 8.596C207.897 8.46882 208.222 8.21794 208.44 7.88371C208.692 7.50011 208.817 7.04704 208.797 6.58867C208.814 6.13281 208.696 5.68199 208.457 5.2936C208.24 4.95761 207.914 4.70619 207.534 4.58131C207.237 4.47371 206.931 4.39244 206.619 4.33847C206.383 4.30564 206.145 4.28941 205.907 4.28991L205.009 4.30611Z" fill="#343635"/>
        <path d="M228.862 3.31862L227.3 5.36644C227.025 4.96033 226.655 4.62774 226.222 4.39775C225.788 4.16776 225.306 4.04737 224.815 4.04709C224.522 4.01937 224.227 4.0533 223.948 4.14671C223.669 4.24012 223.413 4.39093 223.196 4.58941C222.873 4.92343 222.693 5.3708 222.694 5.83589C222.692 6.03406 222.734 6.23023 222.818 6.40968C222.902 6.58913 223.026 6.74718 223.18 6.87194C223.74 7.25757 224.358 7.55259 225.009 7.74612C226.131 8.057 227.183 8.57895 228.109 9.28401C228.556 9.69149 228.905 10.1938 229.132 10.7541C229.359 11.3144 229.458 11.9183 229.421 12.5217C229.447 13.1981 229.329 13.8723 229.074 14.4992C228.818 15.126 228.431 15.6909 227.939 16.1559C226.891 17.1084 225.51 17.6087 224.095 17.5481C223.04 17.5642 222 17.3064 221.075 16.7999C220.15 16.2934 219.372 15.5556 218.817 14.6585L220.768 12.7969C221.064 13.4426 221.553 13.9801 222.168 14.3347C222.717 14.66 223.343 14.8333 223.981 14.8366C224.601 14.8604 225.207 14.6526 225.681 14.2538C225.899 14.0648 226.072 13.8292 226.187 13.5645C226.302 13.2997 226.356 13.0124 226.345 12.724C226.347 12.4655 226.295 12.2094 226.192 11.9724C226.088 11.7353 225.937 11.5226 225.746 11.348C225.03 10.8384 224.23 10.4577 223.382 10.2229C222.461 9.95113 221.6 9.50307 220.849 8.90358C220.446 8.54998 220.128 8.11036 219.918 7.61721C219.708 7.12405 219.611 6.58997 219.635 6.05445C219.625 5.46708 219.731 4.88351 219.948 4.3375C220.164 3.7915 220.487 3.29387 220.898 2.87343C221.383 2.41433 221.957 2.06021 222.585 1.8332C223.213 1.6062 223.882 1.51119 224.548 1.5541C225.35 1.53553 226.147 1.68263 226.889 1.98625C227.632 2.28988 228.303 2.74347 228.862 3.31862Z" fill="#343635"/>
        <path d="M107.676 24.8329H111.667C112.732 24.82 113.796 24.9231 114.84 25.1404C115.753 25.3592 116.612 25.7612 117.365 26.3222C118.29 27.0243 119.034 27.9373 119.534 28.9852C120.051 30.0836 120.313 31.2842 120.303 32.498C120.358 33.704 120.104 34.9041 119.566 35.9848C119.028 37.0654 118.223 37.9909 117.227 38.6739C116.467 39.2212 115.61 39.6195 114.702 39.8475C113.691 40.0639 112.66 40.1644 111.626 40.147H107.676V24.8329ZM110.655 27.4068V37.5731H111.578C112.9 37.6394 114.209 37.2852 115.317 36.5613C115.93 36.1187 116.413 35.5208 116.717 34.8291C117.058 34.0993 117.232 33.3032 117.227 32.498C117.229 31.7018 117.058 30.9148 116.726 30.1912C116.42 29.4914 115.944 28.8792 115.341 28.4105C114.227 27.6808 112.907 27.3289 111.578 27.4068H110.655Z" fill="#343635"/>
        <path d="M127.685 24.8329H130.672V40.147H127.685V24.8329Z" fill="#343635"/>
        <path d="M146.472 34.5215V31.9476H153.497V32.1338C153.497 34.8696 152.747 36.9822 151.247 38.4715C150.524 39.1577 149.669 39.6901 148.734 40.0365C147.799 40.3829 146.804 40.5362 145.808 40.4869C144.79 40.5384 143.771 40.3819 142.815 40.0271C141.859 39.6722 140.986 39.1264 140.247 38.4229C139.487 37.6459 138.893 36.7218 138.501 35.7072C138.11 34.6926 137.93 33.6088 137.973 32.5223C137.944 31.4746 138.128 30.432 138.515 29.4579C138.902 28.4838 139.483 27.5986 140.223 26.8564C141.014 26.0704 141.958 25.4562 142.997 25.0523C144.036 24.6483 145.147 24.4634 146.261 24.5091C147.489 24.4794 148.705 24.7576 149.798 25.3185C151.014 25.9454 152.014 26.9205 152.672 28.1191L150.074 29.5194C149.682 28.7429 149.056 28.1088 148.285 27.7063C147.613 27.3761 146.872 27.2097 146.124 27.2206C145.475 27.1987 144.828 27.307 144.222 27.5391C143.616 27.7713 143.063 28.1226 142.595 28.5723C142.072 29.1034 141.665 29.7375 141.4 30.4342C141.135 31.1309 141.018 31.8751 141.057 32.6194C141.025 33.3354 141.144 34.0501 141.404 34.7178C141.665 35.3854 142.062 35.9912 142.57 36.4965C143.021 36.9314 143.553 37.2715 144.137 37.4967C144.721 37.7219 145.344 37.8277 145.97 37.8078C147.045 37.8414 148.102 37.5168 148.973 36.885C149.718 36.3017 150.231 35.4727 150.422 34.5458L146.472 34.5215Z" fill="#343635"/>
        <path d="M160.871 24.8329H163.858V40.147H160.871V24.8329Z" fill="#343635"/>
        <path d="M180.176 27.4068H176.728V40.147H173.741V27.4068H170.301V24.8329H180.176V27.4068Z" fill="#343635"/>
        <path d="M196.17 40.147L194.818 36.9093H188.642L187.29 40.147H184.053L190.641 24.8329H192.981L199.391 40.147H196.17ZM189.581 34.4811H193.944L191.766 28.969L189.581 34.4811Z" fill="#343635"/>
        <path d="M205.77 24.8329H208.756V37.5731H213.483V40.147H205.77V24.8329Z" fill="#343635"/>
        <path d="M7.80276 42.47H0V2.42825H5.3988L29.746 29.1389V2.42825H37.5488V42.47H32.1742L7.80276 15.6946V42.47Z" fill="#343635"/>
        <path d="M73.0094 1.54303e-06C68.8083 -0.00159946 64.7012 1.2427 61.2074 3.5755C57.7136 5.90831 54.99 9.22483 53.3813 13.1056C51.7725 16.9864 51.3507 21.2571 52.1693 25.3776C52.9879 29.4981 55.0101 33.2833 57.9801 36.2545C60.9501 39.2256 64.7346 41.2492 68.8548 42.0694C72.9749 42.8896 77.2458 42.4694 81.1272 40.8621C85.0086 39.2548 88.3262 36.5326 90.6603 33.0397C92.9945 29.5468 94.2403 25.4401 94.2403 21.239C94.2414 18.4503 93.693 15.6886 92.6265 13.1118C91.56 10.535 89.9963 8.1936 88.0248 6.22127C86.0532 4.24893 83.7123 2.68434 81.1359 1.61688C78.5596 0.549419 75.7981 1.34036e-06 73.0094 1.54303e-06ZM84.9887 28.4995L80.9416 32.5466L73.6569 25.2618L66.3722 32.5466L62.3251 28.4995L69.6098 21.2148L62.3251 13.93L66.3722 9.88295L73.6569 17.1677L80.9416 9.88295L84.9887 13.93L77.704 21.2148L84.9887 28.4995Z" fill="#383A37"/>
    </g>
    <defs>
        <clipPath id="clip0">
            <rect width="229.437" height="42.47" fill="white"/>
        </clipPath>
    </defs>
</svg>
