<svg width="617" height="866" viewBox="0 0 617 866" fill="none" xmlns="http://www.w3.org/2000/svg">
    <path opacity="0.3" d="M432.663 4.19379H432.665C488.928 4.19378 544.64 15.2852 596.618 36.8348C648.597 58.3844 695.824 89.97 735.601 129.787C775.377 169.604 806.925 216.873 828.441 268.893C849.958 320.914 861.021 376.666 861 432.965V432.967C861 517.778 835.865 600.684 788.773 671.199C741.681 741.714 674.749 796.67 596.442 829.118C518.134 861.565 431.969 870.047 348.844 853.489C265.72 836.932 189.369 796.08 129.448 736.099C69.5277 676.117 28.7294 599.702 12.2139 516.517C-4.30163 433.331 4.20756 347.114 36.6651 268.769C69.1226 190.423 124.07 123.469 194.558 76.3752C265.046 29.281 347.908 4.16147 432.663 4.19379ZM679.435 583.735L682.261 580.908L679.435 578.08L533.918 432.472L679.435 286.864L682.261 284.036L679.435 281.209L597.022 198.744L594.193 195.913L591.364 198.744L445.851 344.349L300.338 198.744L297.509 195.913L294.679 198.744L212.267 281.209L209.441 284.036L212.267 286.864L357.784 432.472L212.267 578.08L209.441 580.908L212.267 583.735L294.679 666.2L297.509 669.031L300.338 666.2L445.851 520.595L591.364 666.2L594.193 669.031L597.022 666.2L679.435 583.735Z" stroke="white" stroke-width="8"/>
</svg>